<?xml version="1.0" standalone="no"?>
<!DOCTYPE svg PUBLIC "-//W3C//DTD SVG 20010904//EN"
 "http://www.w3.org/TR/2001/REC-SVG-20010904/DTD/svg10.dtd">
<svg version="1.0" xmlns="http://www.w3.org/2000/svg"
 width="250.000000pt" height="250.000000pt" viewBox="0 0 250.000000 250.000000"
 preserveAspectRatio="xMidYMid meet">
<metadata>
Created by potrace 1.14, written by Peter Selinger 2001-2017
</metadata>
<g transform="translate(0.000000,250.000000) scale(0.100000,-0.100000)"
fill="#000000" stroke="none">
<path d="M1150 2093 c-88 -29 -381 -27 -507 4 -23 5 -23 5 -8 -36 43 -122 62
-335 44 -476 -6 -38 -22 -115 -36 -170 -95 -359 53 -630 409 -751 121 -41 177
-46 266 -24 286 72 469 236 513 458 15 78 7 239 -15 301 -63 176 -58 512 10
685 6 16 4 18 -17 13 -124 -31 -418 -33 -514 -3 -60 19 -86 19 -145 -1z"/>
<path d="M424 1755 c-17 -13 -17 -14 -1 -15 14 0 17 -9 17 -45 0 -25 5 -45 10
-45 6 0 10 27 10 60 0 63 -4 69 -36 45z"/>
<path d="M516 1754 c-9 -8 -16 -21 -16 -28 0 -20 27 -39 45 -32 8 3 15 1 15
-4 0 -5 -11 -12 -25 -16 -22 -6 -36 -24 -17 -24 29 1 52 16 61 41 20 59 -24
103 -63 63z m44 -24 c0 -11 -7 -20 -15 -20 -8 0 -15 9 -15 20 0 11 7 20 15 20
8 0 15 -9 15 -20z"/>
<path d="M1871 1736 c-27 -44 -26 -56 4 -56 16 0 25 -6 25 -15 0 -8 5 -15 10
-15 6 0 10 7 10 15 0 8 5 15 12 15 9 0 9 3 0 12 -7 7 -12 27 -12 45 0 44 -22
43 -49 -1z m29 -11 c0 -15 -6 -25 -15 -25 -12 0 -13 4 -3 25 6 14 13 25 15 25
1 0 3 -11 3 -25z"/>
<path d="M1962 1758 c-7 -7 -12 -20 -12 -29 0 -21 26 -43 40 -34 5 3 10 1 10
-5 0 -7 -9 -14 -20 -17 -22 -6 -27 -23 -7 -23 7 0 23 7 35 16 39 27 25 104
-18 104 -9 0 -21 -5 -28 -12z m44 -19 c10 -17 -13 -36 -27 -22 -12 12 -4 33
11 33 5 0 12 -5 16 -11z"/>
<path d="M565 830 c-3 -5 -3 -25 1 -45 7 -39 0 -43 -28 -18 -10 9 -21 13 -25
10 -10 -10 28 -47 48 -47 24 0 40 30 28 53 -15 26 -1 42 20 23 23 -21 36 -8
14 16 -17 20 -48 24 -58 8z"/>
<path d="M1802 802 l-23 -26 42 -42 41 -42 23 26 c13 15 19 29 13 31 -6 2 -14
-2 -18 -9 -5 -7 -15 -10 -25 -6 -17 6 -17 8 0 26 23 26 11 39 -14 16 -14 -13
-21 -14 -27 -5 -4 7 1 18 11 26 12 8 15 16 9 22 -5 5 -18 -2 -32 -17z"/>
<path d="M628 752 c-32 -41 -35 -69 -10 -88 27 -21 46 -16 82 21 24 24 31 38
23 46 -7 7 -20 -1 -42 -26 -19 -22 -38 -35 -46 -31 -21 8 -18 24 10 58 26 31
30 44 18 51 -5 3 -20 -11 -35 -31z"/>
<path d="M1731 736 l-22 -24 32 -38 c18 -22 34 -41 36 -43 5 -8 63 42 57 50
-4 6 -14 3 -25 -7 -15 -13 -22 -15 -31 -6 -9 9 -7 15 8 26 10 8 16 18 12 22
-4 4 -15 1 -23 -6 -11 -9 -19 -10 -26 -3 -7 7 -5 14 6 23 16 13 20 30 7 30 -5
0 -19 -11 -31 -24z"/>
<path d="M721 669 c-36 -49 -37 -57 -13 -75 34 -27 87 -6 66 27 -3 5 1 9 9 9
17 0 28 22 19 36 -4 5 -17 17 -29 27 -21 19 -22 18 -52 -24z m53 -19 c-6 -6
-15 -6 -24 0 -13 9 -13 11 0 20 18 11 39 -5 24 -20z m-23 -43 c-5 -5 -17 -7
-26 -3 -14 5 -15 9 -5 21 10 12 16 13 27 4 9 -8 10 -16 4 -22z"/>
<path d="M1629 662 l-22 -19 28 -39 c16 -21 32 -43 37 -48 9 -12 68 41 68 61
0 8 -7 25 -16 38 -20 30 -62 33 -95 7z m75 -24 c15 -21 7 -58 -12 -58 -14 0
-53 60 -47 70 11 17 43 11 59 -12z"/>
<path d="M817 596 c-31 -28 -45 -46 -37 -51 6 -4 17 -2 24 4 20 17 48 3 41
-20 -4 -13 -1 -19 8 -19 20 0 40 100 24 117 -10 10 -23 3 -60 -31z m43 -10 c0
-17 -14 -29 -23 -20 -8 8 3 34 14 34 5 0 9 -6 9 -14z"/>
<path d="M1565 619 c-4 -6 -4 -27 0 -47 l7 -37 -31 29 c-33 32 -70 31 -53 -1
6 -10 17 -35 26 -56 8 -21 20 -36 26 -32 6 4 2 22 -11 48 l-21 42 34 -32 c19
-18 38 -33 42 -33 5 0 5 21 2 48 l-6 47 20 -37 c11 -21 25 -38 30 -38 14 0 13
5 -15 60 -25 50 -38 60 -50 39z"/>
<path d="M916 549 c-20 -55 -21 -62 -8 -67 5 -1 15 17 22 40 7 24 15 36 16 28
2 -8 5 -32 9 -52 7 -46 31 -50 40 -8 4 16 11 32 16 35 12 8 12 45 0 45 -5 0
-15 -17 -22 -37 -13 -40 -14 -39 -23 19 -10 55 -30 54 -50 -3z"/>
<path d="M1452 510 c11 -33 24 -58 29 -54 11 7 12 41 0 48 -4 3 -11 19 -14 36
-4 17 -13 30 -21 30 -12 0 -11 -10 6 -60z"/>
<path d="M1076 527 c-14 -68 -16 -97 -7 -97 10 0 15 14 24 65 2 14 7 9 16 -20
27 -82 46 -81 57 3 4 36 3 52 -5 52 -6 0 -12 -9 -12 -20 -2 -33 -4 -38 -11
-46 -5 -4 -8 0 -8 9 0 24 -21 65 -36 71 -9 3 -16 -3 -18 -17z"/>
<path d="M1394 533 c19 -71 20 -70 -14 -30 -36 42 -65 50 -57 15 3 -13 9 -40
12 -60 10 -53 28 -49 20 5 l-7 42 29 -32 c33 -39 68 -45 58 -12 -9 27 -13 49
-14 72 -1 9 -8 17 -17 17 -10 0 -14 -6 -10 -17z"/>
<path d="M1194 473 l2 -57 37 -2 c41 -3 51 13 12 18 -31 4 -34 22 -5 26 26 4
26 22 0 22 -11 0 -20 7 -20 15 0 9 9 15 25 15 14 0 25 5 25 10 0 6 -18 10 -39
10 l-39 0 2 -57z"/>
</g>
</svg>
